<?xml version="1.0" encoding="UTF-8"?>
<!-- Generator: visioncortex VTracer 0.6.4 -->
<svg version="1.1" xmlns="http://www.w3.org/2000/svg" width="1024" height="1024">
<path d="M0 0 C337.92 0 675.84 0 1024 0 C1024 337.92 1024 675.84 1024 1024 C686.08 1024 348.16 1024 0 1024 C0 686.08 0 348.16 0 0 Z " fill="#FAFAFA" transform="translate(0,0)"/>
<path d="M0 0 C0.86018234 -0.0049649 1.72036469 -0.00992981 2.60661316 -0.01504517 C5.46659125 -0.02970952 8.32651384 -0.03647676 11.18652344 -0.04199219 C13.16851809 -0.04774125 15.15051272 -0.05349901 17.13250732 -0.05926514 C21.29553487 -0.06978806 25.45854304 -0.07562189 29.62158203 -0.07910156 C34.95602558 -0.08458122 40.29021321 -0.10859253 45.62457657 -0.13707352 C49.72180934 -0.15570103 53.81898059 -0.16090562 57.91625214 -0.16243744 C59.88264105 -0.16546553 61.84902883 -0.17349932 63.81537628 -0.18662262 C66.5685211 -0.20368126 69.32104249 -0.20180301 72.07421875 -0.1953125 C72.88688705 -0.20452728 73.69955536 -0.21374207 74.53684998 -0.22323608 C79.14636678 -0.18920252 82.1429783 0.28165541 85.79589844 3.16113281 C89.13687749 7.31842809 90.43265271 10.75048118 91.28808594 15.97753906 C91.40312469 16.65442276 91.51816345 17.33130646 91.63668823 18.02870178 C91.89359405 19.55394476 92.14348486 21.08038046 92.38757324 22.60772705 C92.83219858 25.38813079 93.29579358 28.16498278 93.76171875 30.94189453 C95.01570626 38.44377944 96.24582277 45.94954176 97.46728516 53.45678711 C97.99256527 56.68044015 98.52277655 59.9032507 99.05371094 63.12597656 C99.21412872 64.12056381 99.37454651 65.11515106 99.53982544 66.13987732 C99.76543655 67.50379356 99.76543655 67.50379356 99.99560547 68.89526367 C100.12645538 69.69749863 100.2573053 70.49973358 100.39212036 71.32627869 C100.62514144 73.16991363 100.62514144 73.16991363 101.79589844 74.16113281 C101.96907089 73.63939484 102.14224335 73.11765686 102.32066345 72.58010864 C104.11944165 67.16169161 105.92031195 61.74397322 107.72241211 56.32666016 C108.39515271 54.30340215 109.06735529 52.27996518 109.73901367 50.25634766 C110.70318282 47.35174362 111.66926971 44.44778363 112.63574219 41.54394531 C112.93681381 40.63556915 113.23788544 39.72719299 113.54808044 38.79129028 C113.82829544 37.95056976 114.10851044 37.10984924 114.3972168 36.24365234 C114.76694862 35.13112595 114.76694862 35.13112595 115.14414978 33.99612427 C115.79589844 32.16113281 115.79589844 32.16113281 116.79589844 30.16113281 C125.70589844 30.16113281 134.61589844 30.16113281 143.79589844 30.16113281 C149.24089844 52.43613281 149.24089844 52.43613281 154.79589844 75.16113281 C158.00229109 61.52032343 158.00229109 61.52032343 161.19775391 47.87695312 C161.60246936 46.16429458 162.007555 44.45172345 162.41308594 42.73925781 C162.61877197 41.85286621 162.82445801 40.96647461 163.03637695 40.05322266 C163.34055542 38.77487549 163.34055542 38.77487549 163.65087891 37.47070312 C163.82408661 36.73346008 163.99729431 35.99621704 164.17575073 35.2366333 C164.79589844 33.16113281 164.79589844 33.16113281 166.79589844 29.16113281 C176.69589844 29.16113281 186.59589844 29.16113281 196.79589844 29.16113281 C196.11800629 36.61794643 195.2743992 43.59470335 193.75683594 50.86425781 C193.55497681 51.85375931 193.35311768 52.8432608 193.1451416 53.86274719 C192.4934031 57.04688459 191.832562 60.22904437 191.17089844 63.41113281 C190.71906391 65.60502594 190.26740479 67.79895521 189.81591797 69.99291992 C186.35060177 86.7667725 182.65346427 103.4729676 178.79589844 120.16113281 C165.26589844 120.16113281 151.73589844 120.16113281 137.79589844 120.16113281 C137.0134375 117.14085937 136.23097656 114.12058594 135.42480469 111.00878906 C134.66773885 108.09621922 133.90948956 105.18395992 133.15112305 102.27172852 C132.62318942 100.2417774 132.09649393 98.21150387 131.57104492 96.1809082 C130.81719149 93.26851875 130.05894716 90.3573037 129.29980469 87.44628906 C129.0643544 86.53275162 128.82890411 85.61921417 128.58631897 84.67799377 C128.25608986 83.4167997 128.25608986 83.4167997 127.91918945 82.13012695 C127.72599625 81.38622208 127.53280304 80.6423172 127.33375549 79.87586975 C126.93714693 78.14802632 126.93714693 78.14802632 125.79589844 77.16113281 C125.57450195 77.97155029 125.35310547 78.78196777 125.125 79.61694336 C124.28418994 82.69079969 123.44151011 85.76413621 122.59765625 88.8371582 C122.23625641 90.15466849 121.87555299 91.47237006 121.515625 92.7902832 C114.50554411 118.45148714 114.50554411 118.45148714 112.79589844 120.16113281 C110.55659958 120.25549811 108.31428094 120.27855609 106.07299805 120.2746582 C105.37059494 120.27480423 104.66819183 120.27495026 103.94450378 120.27510071 C101.61238565 120.27440154 99.28034644 120.26660898 96.94824219 120.25878906 C95.33541406 120.2569249 93.72258537 120.25550099 92.10975647 120.25450134 C87.85674487 120.25067604 83.6037672 120.24084566 79.35076904 120.22979736 C75.01412414 120.2195835 70.67747377 120.21500378 66.34082031 120.20996094 C57.82583075 120.1992234 49.31086881 120.18214684 40.79589844 120.16113281 C40.23588209 116.36442857 39.69335654 112.58914148 39.40698242 108.76147461 C39.3469957 107.97342941 39.28700897 107.18538422 39.22520447 106.37345886 C39.16474442 105.54413345 39.10428436 104.71480804 39.04199219 103.86035156 C38.976819 102.98393509 38.91164581 102.10751862 38.84449768 101.20454407 C38.70800588 99.3582145 38.57276881 97.5117918 38.4387207 95.6652832 C38.23476111 92.86732619 38.02434903 90.06990439 37.81347656 87.27246094 C37.68092132 85.46845337 37.54874756 83.66441772 37.41699219 81.86035156 C37.3545079 81.03709885 37.29202362 80.21384613 37.22764587 79.36564636 C36.8157137 73.58542084 36.79589844 67.9911978 36.79589844 62.16113281 C27.88589844 62.16113281 18.97589844 62.16113281 9.79589844 62.16113281 C9.8075 65.00738281 9.81910156 67.85363281 9.83105469 70.78613281 C9.8388946 73.59960825 9.84494315 76.41308238 9.85083008 79.2265625 C9.85580179 81.15430258 9.8625815 83.08203902 9.87133789 85.00976562 C9.88372288 87.81023063 9.8891983 90.61064504 9.89355469 93.41113281 C9.89871597 94.24725098 9.90387726 95.08336914 9.90919495 95.94482422 C9.90992696 104.08251412 9.30724624 111.979568 8.79589844 120.16113281 C-3.41410156 120.16113281 -15.62410156 120.16113281 -28.20410156 120.16113281 C-28.20410156 90.79113281 -28.20410156 61.42113281 -28.20410156 31.16113281 C-5.19734481 31.16113281 -5.19734481 31.16113281 2.04589844 31.66113281 C3.19832031 31.73267578 3.19832031 31.73267578 4.37402344 31.80566406 C6.18166803 31.91864185 7.98885491 32.03891731 9.79589844 32.16113281 C10.45589844 33.81113281 11.11589844 35.46113281 11.79589844 37.16113281 C12.55902344 36.52175781 13.32214844 35.88238281 14.10839844 35.22363281 C19.84843318 30.81848987 26.61234948 31.93909067 33.54589844 31.91113281 C34.80917969 31.89050781 36.07246094 31.86988281 37.37402344 31.84863281 C49.17150223 31.79906357 49.17150223 31.79906357 54.79589844 35.16113281 C55.78589844 36.15113281 56.77589844 37.14113281 57.79589844 38.16113281 C57.79589844 34.86113281 57.79589844 31.56113281 57.79589844 28.16113281 C57.00892578 28.17200928 56.22195313 28.18288574 55.41113281 28.1940918 C43.82655586 28.27842212 32.27237512 27.831903 20.69873047 27.36157227 C17.302873 27.22391554 13.90683776 27.09159825 10.51074219 26.95996094 C-0.74047922 26.5161422 -11.97570411 26.01521751 -23.20410156 25.16113281 C-21.91107267 21.69827683 -20.40236336 18.66813477 -18.41894531 15.55175781 C-17.88849609 14.71515625 -17.35804688 13.87855469 -16.81152344 13.01660156 C-16.26044922 12.15679687 -15.709375 11.29699219 -15.14160156 10.41113281 C-14.58666016 9.53585937 -14.03171875 8.66058594 -13.45996094 7.75878906 C-9.10014358 0.90840613 -8.23347888 0.01121376 0 0 Z " fill="#0E0E0E" transform="translate(338.2041015625,410.8388671875)"/>
<path d="M0 0 C2.10891634 0.00317755 4.21644985 -0.02042186 6.32519531 -0.0456543 C7.6819644 -0.04792629 9.03873721 -0.04863125 10.39550781 -0.04760742 C11.61189941 -0.05058838 12.82829102 -0.05356934 14.08154297 -0.05664062 C19.23367831 0.5075563 22.43597594 2.1326427 25.85644531 6.00317383 C26.39269531 6.76629883 26.92894531 7.52942383 27.48144531 8.31567383 C27.87332031 7.55254883 28.26519531 6.78942383 28.66894531 6.00317383 C30.77531488 2.8799362 32.06850121 1.89230407 35.48144531 0.31567383 C38.41918271 0.06327846 41.13340299 -0.03519854 44.06347656 0.02270508 C44.87765549 0.02694992 45.69183441 0.03119476 46.53068542 0.03556824 C49.11878199 0.0522963 51.70608603 0.08993671 54.29394531 0.12817383 C56.05369965 0.1432283 57.81346626 0.15691537 59.57324219 0.16918945 C63.87627968 0.20218047 68.17872834 0.25392143 72.48144531 0.31567383 C75.4505516 6.74880923 78.01709126 13.26679454 80.42285156 19.92895508 C81.17427078 21.99057653 81.92573739 24.0521807 82.67724609 26.11376953 C83.06430725 27.17923004 83.45136841 28.24469055 83.85015869 29.34243774 C89.83610129 45.81793449 95.84565562 62.2685693 102.48364258 78.49462891 C102.88768311 79.49389404 103.29172363 80.49315918 103.70800781 81.52270508 C104.05428223 82.36293213 104.40055664 83.20315918 104.75732422 84.06884766 C105.48144531 86.31567383 105.48144531 86.31567383 105.48144531 90.31567383 C100.20144531 90.31567383 94.92144531 90.31567383 89.48144531 90.31567383 C84.71188527 81.14700501 80.70717236 71.69627655 76.66894531 62.19067383 C74.29707031 56.62192383 71.92519531 51.05317383 69.48144531 45.31567383 C69.48144531 60.16567383 69.48144531 75.01567383 69.48144531 90.31567383 C64.84082031 90.39817383 60.20019531 90.48067383 55.41894531 90.56567383 C53.96866943 90.60208984 52.51839355 90.63850586 51.02416992 90.67602539 C38.98345597 90.77971652 38.98345597 90.77971652 33.48144531 86.31567383 C31.54394531 84.06567383 31.54394531 84.06567383 30.48144531 82.31567383 C29.66740234 83.05624023 29.66740234 83.05624023 28.83691406 83.81176758 C28.12148438 84.45243164 27.40605469 85.0930957 26.66894531 85.75317383 C25.96125 86.39125977 25.25355469 87.0293457 24.52441406 87.68676758 C20.57452714 90.83610381 16.44324706 90.49129426 11.62988281 90.51879883 C10.46968124 90.52734894 10.46968124 90.52734894 9.28604126 90.53607178 C7.6469255 90.54551652 6.00779079 90.55205367 4.36865234 90.5559082 C1.88637052 90.5655575 -0.59506287 90.5965612 -3.07714844 90.62817383 C-13.64211119 90.69884917 -22.95275455 90.48704138 -31.51855469 83.31567383 C-35.38670109 78.12095157 -36.62488027 72.96305975 -36.6796875 66.59228516 C-36.68929504 65.68396439 -36.69890259 64.77564362 -36.70880127 63.83979797 C-36.71305115 62.86890732 -36.71730103 61.89801666 -36.72167969 60.89770508 C-36.72737976 59.88528244 -36.73307983 58.8728598 -36.73895264 57.82975769 C-36.74838512 55.68892455 -36.75492965 53.548077 -36.75878906 51.40722656 C-36.7684687 48.15704507 -36.79949858 44.90750325 -36.83105469 41.6574707 C-36.83758814 39.57088589 -36.84283726 37.48429658 -36.84667969 35.39770508 C-36.85902649 34.43693558 -36.87137329 33.47616608 -36.88409424 32.48628235 C-36.85113075 22.33634865 -34.61268976 13.80874559 -27.51855469 6.31567383 C-19.41254965 -0.3805912 -10.01296738 -0.03159772 0 0 Z " fill="#0E0E0E" transform="translate(568.5185546875,439.684326171875)"/>
<path d="M0 0 C13.2 0 26.4 0 40 0 C42.48678518 6.83865925 44.8810014 13.58660799 46.98046875 20.53515625 C47.36795036 21.80316322 47.36795036 21.80316322 47.76325989 23.0967865 C48.57409369 25.75119418 49.38111772 28.40673694 50.1875 31.0625 C51.00501369 33.75026565 51.82338683 36.43775938 52.64387512 39.12461853 C53.15098455 40.78565155 53.65633051 42.44722421 54.15971375 44.10939026 C55.3583589 48.13955291 55.3583589 48.13955291 57 52 C57.20853607 51.42006287 57.41707214 50.84012573 57.63192749 50.24261475 C59.80276239 44.20705996 61.97703957 38.17275338 64.15332031 32.13916016 C64.96507712 29.88720012 65.77595554 27.63492324 66.5859375 25.38232422 C67.75029437 22.14467013 68.91780478 18.90816838 70.0859375 15.671875 C70.44746918 14.66445251 70.80900085 13.65703003 71.18148804 12.61907959 C71.52168976 11.67840637 71.86189148 10.73773315 72.21240234 9.76855469 C72.50996429 8.94248718 72.80752625 8.11641968 73.11410522 7.26531982 C73.95154433 5.12390589 74.97170453 3.05659095 76 1 C88.54 1 101.08 1 114 1 C112.6998358 6.85073888 111.51651778 11.75516525 109.4609375 17.24609375 C109.0984642 18.21864609 109.0984642 18.21864609 108.72866821 19.21084595 C107.9510425 21.28908165 107.16373216 23.36345649 106.375 25.4375 C106.10478027 26.15396698 105.83456055 26.87043396 105.55615234 27.60861206 C102.30759305 36.2171261 98.93192681 44.72711527 95.06640625 53.07983398 C91.85945627 60.09828297 89.12929558 67.29563731 86.375 74.5 C82.16962039 85.48003227 77.87458925 96.41864754 73.42364502 107.30175781 C72.81313505 108.79606095 72.20497825 110.29132788 71.5993042 111.78759766 C70.75005988 113.88337909 69.89197166 115.97531664 69.03125 118.06640625 C68.54205078 119.26209229 68.05285156 120.45777832 67.54882812 121.68969727 C63.77720696 129.75076463 58.23672876 136.62914292 49.75 139.875 C48.5125 140.24625 47.275 140.6175 46 141 C45.39414062 141.185625 44.78828125 141.37125 44.1640625 141.5625 C31.87968215 144.04598484 17.45491175 141.64177701 5 141 C3.8530624 136.53617073 2.71398419 132.0704359 1.58203125 127.6027832 C1.19614696 126.084335 0.80814913 124.56642223 0.41796875 123.04907227 C-0.14363928 120.86352877 -0.69752987 118.67615007 -1.25 116.48828125 C-1.42499023 115.81412674 -1.59998047 115.13997223 -1.78027344 114.44538879 C-2.70392693 110.75295272 -3 107.8770568 -3 104 C8.88 104 20.76 104 33 104 C32.19190187 96.09224536 32.19190187 96.09224536 29.91796875 89.04296875 C29.48661621 87.94895752 29.05526367 86.85494629 28.61083984 85.7277832 C28.1411377 84.55948975 27.67143555 83.39119629 27.1875 82.1875 C22.13829356 69.33927962 17.67692142 56.34199037 13.36889648 43.22924805 C12.87358075 41.72182747 12.37821981 40.21442174 11.8828125 38.70703125 C11.64133987 37.97153549 11.39986725 37.23603973 11.15107727 36.47825623 C9.56340661 31.65932173 7.92524798 26.86063534 6.2421875 22.07421875 C5.81953613 20.87112061 5.39688477 19.66802246 4.96142578 18.4284668 C4.17593155 16.20543263 3.38553786 13.98412121 2.58935547 11.76489258 C2.07332764 10.30345825 2.07332764 10.30345825 1.546875 8.8125 C1.24620117 7.97332031 0.94552734 7.13414062 0.63574219 6.26953125 C0 4 0 4 0 0 Z " fill="#0E0E0E" transform="translate(650,440)"/>
<path d="M0 0 C1.31134918 0.00091644 2.62269836 0.00183289 3.9737854 0.0027771 C6.73567296 0.00588476 9.49703398 0.02228536 12.25878906 0.04931641 C15.76396037 0.08322596 19.2685543 0.09094535 22.77387047 0.08942604 C26.16182142 0.09010717 29.54959102 0.10782702 32.9375 0.125 C34.79899185 0.12833847 34.79899185 0.12833847 36.6980896 0.13174438 C60.02287161 0.38224661 60.02287161 0.38224661 67.2890625 7.6484375 C72.19580241 15.26234425 72.5581266 22.07690974 72.53515625 30.921875 C72.5403981 32.10762115 72.54563995 33.29336731 72.55104065 34.51504517 C72.55744265 37.01457947 72.55614758 39.51414397 72.54760742 42.01367188 C72.53910493 45.81695797 72.56787556 49.61873725 72.59960938 53.421875 C72.60122189 55.85937455 72.6006429 58.29687674 72.59765625 60.734375 C72.60889023 61.86072357 72.62012421 62.98707214 72.63169861 64.14755249 C72.55784923 72.60681485 71.13540707 79.7085508 65.7265625 86.3984375 C57.14223038 92.51022561 43.75617698 91.90883596 33.70703125 91.859375 C32.39422684 91.86224518 31.08142242 91.86511536 29.72883606 91.86807251 C26.97837473 91.87244627 24.22820958 91.86622252 21.4777832 91.85205078 C17.9768225 91.83487618 14.47654794 91.84488297 10.97561169 91.86276817 C7.59436478 91.87628252 4.21329755 91.86679448 0.83203125 91.859375 C-0.41189896 91.86544769 -1.65582916 91.87152039 -2.93745422 91.8777771 C-11.03553396 91.81262528 -17.64849053 90.91646242 -24.7109375 86.8359375 C-30.14769173 80.93317577 -31.99771181 73.21599665 -32.05957031 65.35449219 C-32.06917786 64.36286072 -32.0787854 63.37122925 -32.08868408 62.34954834 C-32.09293396 61.28802551 -32.09718384 60.22650269 -32.1015625 59.1328125 C-32.10726257 58.02923401 -32.11296265 56.92565552 -32.11883545 55.78863525 C-32.12827051 53.45529128 -32.13481349 51.12193408 -32.13867188 48.78857422 C-32.1483644 45.23771631 -32.17939743 41.68744062 -32.2109375 38.13671875 C-32.21746949 35.86458675 -32.22271919 33.59245064 -32.2265625 31.3203125 C-32.2389093 30.2668866 -32.2512561 29.21346069 -32.26397705 28.12811279 C-32.24037688 20.23092494 -31.03788185 13.89701479 -26.8359375 7.1484375 C-19.09292993 0.06440929 -10.04542695 -0.11595034 0 0 Z " fill="#0E0E0F" transform="translate(232.8984375,439.5390625)"/>
<path d="M0 0 C18.81 0 37.62 0 57 0 C55.69837971 6.50810145 53.13487816 12.28268847 50.5625 18.375 C50.14158081 19.37691879 50.14158081 19.37691879 49.7121582 20.39907837 C42.60101055 37.29103274 34.85870906 53.89221384 27.10253906 70.49511719 C25.23407754 74.49533787 23.3764408 78.50040724 21.5234375 82.5078125 C16.94246812 92.41181798 12.33429238 102.3022892 7.6796875 112.171875 C7.31148895 112.95286057 6.94329041 113.73384613 6.56393433 114.53849792 C4.75019725 118.38475811 2.93427278 122.22996156 1.11474609 126.07348633 C0.4566653 127.46694054 -0.201377 128.86041294 -0.859375 130.25390625 C-1.16287872 130.89314026 -1.46638245 131.53237427 -1.77908325 132.190979 C-2.99720236 134.77398811 -4.09566042 137.28698125 -5 140 C-17.78338977 141.25513247 -30.54511881 141.11376536 -43.375 141.0625 C-45.57551981 141.05747376 -47.77604074 141.05291285 -49.9765625 141.04882812 C-55.31773303 141.03791436 -60.65886117 141.0212658 -66 141 C-64.29036806 135.57690775 -62.40601146 130.43467478 -59.8828125 125.32421875 C-59.44356194 124.42699348 -59.44356194 124.42699348 -58.99543762 123.51164246 C-58.36915689 122.23323833 -57.7404886 120.95600143 -57.10958862 119.67987061 C-55.39776005 116.21588894 -53.70509479 112.74256145 -52.01171875 109.26953125 C-51.66768509 108.56473633 -51.32365143 107.85994141 -50.9691925 107.13378906 C-47.864395 100.75700093 -44.89083938 94.3232054 -41.9375 87.875 C-35.71074286 74.32270473 -29.13277808 60.94778817 -22.55679321 47.56234741 C-14.81710476 31.80184806 -7.31297018 15.9636788 0 0 Z " fill="#001B8B" transform="translate(811,440)"/>
<path d="M0 0 C1.4640127 0.00373953 2.92802794 0.00658205 4.39204407 0.00857544 C8.20766354 0.01613803 12.02312584 0.03572121 15.83868408 0.0579834 C19.74725215 0.07860262 23.65584611 0.0876112 27.56445312 0.09765625 C35.20580009 0.11897567 42.84701848 0.15302008 50.48828125 0.1953125 C50.17757047 1.6147337 49.86554423 3.03386698 49.55297852 4.45288086 C49.37936295 5.24319199 49.20574738 6.03350311 49.02687073 6.84776306 C47.97676942 11.42483864 46.65837692 15.92836756 45.390625 20.44921875 C44.25326984 24.86441144 44.25326984 24.86441144 43.48828125 32.1953125 C28.30828125 32.1953125 13.12828125 32.1953125 -2.51171875 32.1953125 C-2.84171875 41.1053125 -3.17171875 50.0153125 -3.51171875 59.1953125 C11.99828125 59.1953125 27.50828125 59.1953125 43.48828125 59.1953125 C44.47828125 64.1453125 45.46828125 69.0953125 46.48828125 74.1953125 C48.10090748 79.40743098 48.10090748 79.40743098 49.81640625 84.5859375 C50.48828125 87.1953125 50.48828125 87.1953125 49.48828125 90.1953125 C40.51689053 90.26505267 31.54559422 90.31824505 22.57399082 90.35074902 C18.40738358 90.36635518 14.24096283 90.38750022 10.07446289 90.42163086 C6.04792911 90.45440572 2.02157387 90.47220342 -2.00508308 90.47994423 C-3.53556183 90.4854554 -5.06603163 90.49621685 -6.59643364 90.51250267 C-15.95704786 90.60808479 -24.19149736 90.62389962 -32.32421875 85.3828125 C-39.37616238 78.33086887 -40.70342253 70.56585908 -40.81526184 60.92741394 C-40.81435043 60.07093765 -40.81343903 59.21446136 -40.8125 58.33203125 C-40.81678513 57.41879593 -40.82107025 56.50556061 -40.82548523 55.56465149 C-40.83119247 53.64442773 -40.83175563 51.72418236 -40.82739258 49.80395508 C-40.82423832 46.90082024 -40.84771778 43.99871205 -40.87304688 41.09570312 C-40.95800664 16.12369635 -40.95800664 16.12369635 -33.51171875 6.1953125 C-23.97242391 -1.00782851 -11.41555947 -0.08671453 0 0 Z " fill="#0F0F10" transform="translate(150.51171875,439.8046875)"/>
<path d="M0 0 C0.77943466 0.00222061 1.55886932 0.00444122 2.36192322 0.00672913 C3.24276077 0.00680466 4.12359833 0.00688019 5.03112793 0.00695801 C5.98841293 0.01211929 6.94569794 0.01728058 7.93199158 0.02259827 C9.39480812 0.02472069 9.39480812 0.02472069 10.88717651 0.02688599 C14.01542675 0.03250319 17.14360656 0.04505859 20.27183533 0.05775452 C22.38706867 0.0627673 24.50230313 0.06733059 26.61753845 0.07142639 C31.81482829 0.0824782 37.01207678 0.09923305 42.20933533 0.12025452 C40.5626171 5.26933524 38.82925152 10.25669678 36.52183533 15.15541077 C35.99799255 16.27335022 35.47414978 17.39128967 34.93443298 18.54310608 C34.35953232 19.75638473 33.78449511 20.96959868 33.20933533 22.18275452 C32.5961794 23.48564366 31.98339777 24.78870901 31.37095642 26.0919342 C29.32542276 30.43866889 27.2682491 34.77984482 25.20933533 39.12025452 C24.8405426 39.89802246 24.47174988 40.67579041 24.09178162 41.47712708 C20.53111592 48.98550394 16.96593526 56.49173182 13.39659119 63.99598694 C8.16913693 74.98672735 2.95584809 85.98395041 -2.22816467 96.99525452 C-2.55412628 97.68743073 -2.88008789 98.37960693 -3.21592712 99.09275818 C-6.64333555 106.3744856 -10.05125007 113.66465503 -13.41566467 120.97572327 C-13.70006912 121.59360718 -13.98447357 122.21149109 -14.27749634 122.84809875 C-15.60621653 125.7369296 -16.93111907 128.62743901 -18.25135803 131.52015686 C-18.70647766 132.51354065 -19.16159729 133.50692444 -19.63050842 134.53041077 C-20.02617004 135.3980304 -20.42183167 136.26565002 -20.82948303 137.15956116 C-21.79066467 139.12025452 -21.79066467 139.12025452 -22.79066467 140.12025452 C-25.89317668 140.20899586 -28.97334588 140.23543907 -32.07582092 140.21791077 C-33.00663986 140.21649582 -33.9374588 140.21508087 -34.89648438 140.21362305 C-37.88207658 140.20800624 -40.86759497 140.19545091 -43.85316467 140.18275452 C-45.8720438 140.17774168 -47.8909241 140.1731784 -49.9098053 140.16908264 C-54.87012039 140.15803135 -59.83038 140.14075547 -64.79066467 140.12025452 C-58.25855526 120.12721446 -49.04200671 101.24699926 -39.80578613 82.39616394 C-39.29556664 81.3546669 -39.29556664 81.3546669 -38.77503967 80.29212952 C-38.43646439 79.60110138 -38.0978891 78.91007324 -37.74905396 78.19810486 C-29.58616668 61.50228106 -21.95684829 44.54836478 -14.29066467 27.62025452 C-13.99875244 26.97666992 -13.70684021 26.33308533 -13.40608215 25.66999817 C-10.05577463 18.27678175 -6.80374812 10.85628849 -3.7535553 3.33314514 C-2.37254003 0.15933115 -2.37254003 0.15933115 0 0 Z " fill="#D61C23" transform="translate(885.7906646728516,439.87974548339844)"/>
<path d="M0 0 C5.5275 -0.0825 11.055 -0.165 16.75 -0.25 C19.35793457 -0.30462402 19.35793457 -0.30462402 22.01855469 -0.36035156 C23.40298224 -0.37203849 24.78742357 -0.38223032 26.171875 -0.390625 C26.88553223 -0.41108887 27.59918945 -0.43155273 28.33447266 -0.45263672 C31.78279454 -0.4550532 33.65548269 -0.2568469 36.45605469 1.83105469 C38.56917815 4.7995855 38.53316486 6.88503007 38.5 10.5 C38.5103125 11.6240625 38.520625 12.748125 38.53125 13.90625 C37.89034963 17.63855213 37.04055828 18.79247139 34 21 C31.25 21.75 31.25 21.75 29 22 C29.68707031 22.61488281 30.37414062 23.22976563 31.08203125 23.86328125 C31.98308594 24.67152344 32.88414062 25.47976563 33.8125 26.3125 C34.70582031 27.11300781 35.59914063 27.91351562 36.51953125 28.73828125 C38.39926786 30.45224581 40.22592747 32.17877604 42 34 C37.24357914 34.9408305 32.45180517 35.57050202 28.18652344 32.83837891 C25.67700439 30.80368834 23.33788675 28.66083275 21.07373047 26.35644531 C16.80111702 22.1305616 14.03028442 21.20408168 8 21 C8 25.29 8 29.58 8 34 C5.36 34 2.72 34 0 34 C0 22.78 0 11.56 0 0 Z " fill="#0E0E0E" transform="translate(395,546)"/>
<path d="M0 0 C10.56 0 21.12 0 32 0 C32 10.23 32 20.46 32 31 C16.16 31.495 16.16 31.495 0 32 C0 21.44 0 10.88 0 0 Z " fill="#F9F9FA" transform="translate(237,470)"/>
<path d="M0 0 C4.11177927 -0.02291394 8.22339658 -0.04283951 12.33520508 -0.05493164 C13.73495228 -0.0599708 15.1346942 -0.06680216 16.53442383 -0.07543945 C18.54245777 -0.0875232 20.55052957 -0.09269807 22.55859375 -0.09765625 C24.37315063 -0.10551147 24.37315063 -0.10551147 26.22436523 -0.11352539 C29 0 29 0 30 1 C30.15806531 2.92478813 30.251135 4.8549921 30.31640625 6.78515625 C30.35830078 7.95498047 30.40019531 9.12480469 30.44335938 10.33007812 C30.48267578 11.56177734 30.52199219 12.79347656 30.5625 14.0625 C30.60568359 15.29806641 30.64886719 16.53363281 30.69335938 17.80664062 C30.79984198 20.87097335 30.90185424 23.93539073 31 27 C23.7454497 27.77369077 16.60559673 28.1328354 9.3125 28.0625 C4.7028125 28.0315625 4.7028125 28.0315625 0 28 C0 18.76 0 9.52 0 0 Z " fill="#F6F6F6" transform="translate(569,472)"/>
<path d="M0 0 C2.8092863 0.27763598 4.3738066 0.56059783 6.52319336 2.41064453 C7.90898851 4.38264426 8.95239838 6.36483017 9.9921875 8.5390625 C10.59426025 9.67601562 10.59426025 9.67601562 11.20849609 10.8359375 C12.04786258 12.42210052 12.87255796 14.016106 13.68310547 15.6171875 C15.67996181 19.49670472 17.88070114 23.25701089 20.0546875 27.0390625 C23.9296875 33.86046898 23.9296875 33.86046898 23.9296875 35.0390625 C20.85545567 35.39378156 17.98960222 35.56572596 14.9296875 35.0390625 C10.9296875 30.55125762 10.9296875 30.55125762 10.9296875 27.0390625 C7.34459703 27.00371276 3.76442323 27.045551 0.1796875 27.1015625 C-0.83609375 27.09060547 -1.851875 27.07964844 -2.8984375 27.06835938 C-8.29013712 26.9974285 -8.29013712 26.9974285 -12.66601562 29.65966797 C-13.94635694 31.78172427 -13.94635694 31.78172427 -15.0703125 35.0390625 C-18.0403125 35.0390625 -21.0103125 35.0390625 -24.0703125 35.0390625 C-21.84751412 30.31170257 -19.48668974 25.66923477 -17.0703125 21.0390625 C-16.40298096 19.7392041 -16.40298096 19.7392041 -15.72216797 18.41308594 C-14.27593326 15.63855615 -12.77411732 12.90083159 -11.2578125 10.1640625 C-10.79729492 9.2659082 -10.33677734 8.36775391 -9.86230469 7.44238281 C-7.23956816 2.8405589 -5.48935311 0.44171303 0 0 Z " fill="#0D0C0D" transform="translate(560.0703125,544.9609375)"/>
<path d="M0 0 C1.04481285 -0.00786278 1.04481285 -0.00786278 2.11073303 -0.0158844 C3.58251616 -0.0223015 5.05435059 -0.02097154 6.52612305 -0.01245117 C8.77420781 -0.00394766 11.01974491 -0.03268946 13.26757812 -0.06445312 C14.69921799 -0.0660655 16.13086234 -0.06548691 17.5625 -0.0625 C18.8630835 -0.06435303 20.16366699 -0.06620605 21.50366211 -0.06811523 C25.36117473 0.51063839 26.55311097 1.3386174 28.84765625 4.43359375 C29.36061607 7.53187104 29.03383924 10.26848296 28.84765625 13.43359375 C25.87765625 13.43359375 22.90765625 13.43359375 19.84765625 13.43359375 C19.84765625 11.12359375 19.84765625 8.81359375 19.84765625 6.43359375 C12.58765625 6.43359375 5.32765625 6.43359375 -2.15234375 6.43359375 C-2.15234375 13.69359375 -2.15234375 20.95359375 -2.15234375 28.43359375 C5.10765625 28.43359375 12.36765625 28.43359375 19.84765625 28.43359375 C19.84765625 26.12359375 19.84765625 23.81359375 19.84765625 21.43359375 C22.81765625 21.43359375 25.78765625 21.43359375 28.84765625 21.43359375 C29.33818789 29.77263156 29.33818789 29.77263156 27.27856445 32.54785156 C23.95629689 35.125053 21.73771573 34.95035994 17.5625 34.96484375 C16.51625206 34.97058411 16.51625206 34.97058411 15.4488678 34.97644043 C13.97883658 34.97915523 12.5087567 34.97182405 11.03881836 34.95507812 C8.78845814 34.93362523 6.541278 34.95490597 4.29101562 34.98046875 C2.86067004 34.97782602 1.43032644 34.97270218 0 34.96484375 C-1.29945557 34.96033203 -2.59891113 34.95582031 -3.93774414 34.95117188 C-7.15234375 34.43359375 -7.15234375 34.43359375 -9.07446289 32.78735352 C-10.44405009 29.79659696 -10.54058169 27.53105905 -10.55078125 24.2421875 C-10.55464844 23.05044922 -10.55851562 21.85871094 -10.5625 20.63085938 C-10.55089844 19.39013672 -10.53929687 18.14941406 -10.52734375 16.87109375 C-10.54474609 15.00420898 -10.54474609 15.00420898 -10.5625 13.09960938 C-10.55863281 11.90916016 -10.55476563 10.71871094 -10.55078125 9.4921875 C-10.54739746 8.40220459 -10.54401367 7.31222168 -10.54052734 6.18920898 C-10.15234375 3.43359375 -10.15234375 3.43359375 -9.07446289 1.58203125 C-6.09071435 -0.20071397 -3.44794322 0.02586652 0 0 Z " fill="#0A0A0A" transform="translate(492.15234375,545.56640625)"/>
<path d="M0 0 C0.69749863 -0.00145523 1.39499725 -0.00291046 2.1136322 -0.00440979 C3.58369131 -0.00275414 5.05376835 0.00876998 6.52368164 0.02954102 C8.7736969 0.05854674 11.02136178 0.05013575 13.27148438 0.03710938 C14.70183436 0.04334583 16.13217692 0.05173605 17.5625 0.0625 C18.86195557 0.07224854 20.16141113 0.08199707 21.50024414 0.09204102 C24.71484375 0.49609375 24.71484375 0.49609375 26.62988281 1.86816406 C28.88092998 5.24574789 28.45966537 9.56634676 28.71484375 13.49609375 C25.41484375 13.49609375 22.11484375 13.49609375 18.71484375 13.49609375 C18.71484375 11.18609375 18.71484375 8.87609375 18.71484375 6.49609375 C11.45484375 6.49609375 4.19484375 6.49609375 -3.28515625 6.49609375 C-3.28515625 13.75609375 -3.28515625 21.01609375 -3.28515625 28.49609375 C4.30484375 28.49609375 11.89484375 28.49609375 19.71484375 28.49609375 C19.71484375 26.18609375 19.71484375 23.87609375 19.71484375 21.49609375 C22.35484375 21.49609375 24.99484375 21.49609375 27.71484375 21.49609375 C27.82368494 22.91102926 27.90081992 24.32842318 27.96484375 25.74609375 C28.01125 26.535 28.05765625 27.32390625 28.10546875 28.13671875 C27.55581478 31.45662872 26.35122737 32.43751843 23.71484375 34.49609375 C20.47851562 35.01367188 20.47851562 35.01367188 16.68359375 35.02734375 C16.01066284 35.03117065 15.33773193 35.03499756 14.64440918 35.03894043 C13.22565205 35.04165505 11.80684448 35.03432509 10.38818359 35.01757812 C8.22119172 34.9961565 6.05751424 35.01738913 3.890625 35.04296875 C2.50910729 35.04032539 1.12759165 35.03520022 -0.25390625 35.02734375 C-1.50623047 35.02283203 -2.75855469 35.01832031 -4.04882812 35.01367188 C-7.28515625 34.49609375 -7.28515625 34.49609375 -9.69140625 32.83398438 C-11.70065955 29.88658708 -11.80104103 28.11015544 -11.81640625 24.55859375 C-11.8215625 23.41648437 -11.82671875 22.274375 -11.83203125 21.09765625 C-11.8165625 19.90914062 -11.80109375 18.720625 -11.78515625 17.49609375 C-11.800625 16.30757812 -11.81609375 15.1190625 -11.83203125 13.89453125 C-11.826875 12.75242187 -11.82171875 11.6103125 -11.81640625 10.43359375 C-11.81189453 9.39074219 -11.80738281 8.34789062 -11.80273438 7.2734375 C-11.28515625 4.49609375 -11.28515625 4.49609375 -9.70727539 2.15600586 C-6.37168036 -0.12992405 -4.02381531 -0.005733 0 0 Z " fill="#0E0E0E" transform="translate(297.28515625,545.50390625)"/>
<path d="M0 0 C11.88 0 23.76 0 36 0 C36 1.98 36 3.96 36 6 C26.76 6 17.52 6 8 6 C8 8.31 8 10.62 8 13 C13.61 13 19.22 13 25 13 C25 15.31 25 17.62 25 20 C19.72 20 14.44 20 9 20 C9 22.64 9 25.28 9 28 C17.91 28 26.82 28 36 28 C36 29.98 36 31.96 36 34 C24.12 34 12.24 34 0 34 C0 22.78 0 11.56 0 0 Z " fill="#0D0D0D" transform="translate(126,546)"/>
<path d="M0 0 C11.88 0 23.76 0 36 0 C36 1.98 36 3.96 36 6 C27.09 6 18.18 6 9 6 C9 8.31 9 10.62 9 13 C14.28 13 19.56 13 25 13 C25 14.98 25 16.96 25 19 C19.72 19 14.44 19 9 19 C9 21.97 9 24.94 9 28 C17.91 28 26.82 28 36 28 C36 29.98 36 31.96 36 34 C24.12 34 12.24 34 0 34 C0 22.78 0 11.56 0 0 Z " fill="#121212" transform="translate(231,546)"/>
<path d="M0 0 C0.66 0 1.32 0 2 0 C2 0.99 2 1.98 2 3 C2.78375 2.814375 3.5675 2.62875 4.375 2.4375 C7 2 7 2 9 3 C9.75613403 4.62916565 9.75613403 4.62916565 10.47705078 6.77172852 C10.75164124 7.57586182 11.02623169 8.37999512 11.30914307 9.20849609 C11.60157898 10.08973145 11.89401489 10.9709668 12.1953125 11.87890625 C12.50418396 12.790354 12.81305542 13.70180176 13.13128662 14.64086914 C14.13630722 17.61239875 15.13075161 20.58735066 16.125 23.5625 C16.806837 25.58541329 17.48929119 27.60811866 18.17236328 29.63061523 C19.83028539 34.54564333 21.47969931 39.46346481 23.12475586 44.3828125 C23.90563305 46.71782043 24.6877781 49.05239684 25.47070312 51.38671875 C27.45493463 57.30567826 29.43197696 63.22690208 31.39013672 69.15454102 C31.92417436 70.77055005 32.46179173 72.3853752 33 74 C32.34 74 31.68 74 31 74 C30.67 74.66 30.34 75.32 30 76 C27 75 27 75 25.90356445 72.92260742 C25.560271 71.99295166 25.21697754 71.0632959 24.86328125 70.10546875 C24.45827393 69.02499268 24.0532666 67.9445166 23.63598633 66.83129883 C23.19923584 65.62884521 22.76248535 64.4263916 22.3125 63.1875 C21.84678405 61.92897063 21.38020706 60.67075961 20.9128418 59.4128418 C19.57096747 55.78930777 18.24611448 52.15971742 16.92333984 48.5291748 C15.92682238 45.79955484 14.92488679 43.07196666 13.921875 40.34472656 C11.71228185 34.3363439 9.51077517 28.32503174 7.3125 22.3125 C6.94903473 21.31995209 6.58556946 20.32740417 6.21109009 19.30477905 C5.17492139 16.47139675 4.14335541 13.63638403 3.11328125 10.80078125 C2.79818604 9.9405838 2.48309082 9.08038635 2.15844727 8.19412231 C1.87324219 7.40601166 1.58803711 6.617901 1.29418945 5.8059082 C1.04312943 5.11616409 0.7920694 4.42641998 0.53340149 3.71577454 C0 2 0 2 0 0 Z " fill="#F2F2F2" transform="translate(642,441)"/>
<path d="M0 0 C12.87 0 25.74 0 39 0 C39 1.98 39 3.96 39 6 C34.38 6 29.76 6 25 6 C25 15.24 25 24.48 25 34 C22.03 34 19.06 34 16 34 C16 24.76 16 15.52 16 6 C10.72 6 5.44 6 0 6 C0 4.02 0 2.04 0 0 Z " fill="#111010" transform="translate(339,546)"/>
<path d="M0 0 C10.56 0 21.12 0 32 0 C28.48829681 4.68227092 28.48829681 4.68227092 24.3828125 5.6953125 C18.95829156 6.38893977 13.45595307 6.13620965 8 6 C8 8.97 8 11.94 8 15 C14.93 15 21.86 15 29 15 C29 12.69 29 10.38 29 8 C29.66 7.34 30.32 6.68 31 6 C31.0270043 7.45823212 31.04639787 8.91660675 31.0625 10.375 C31.07410156 11.18710937 31.08570313 11.99921875 31.09765625 12.8359375 C31 15 31 15 30 17 C19.605 17.495 19.605 17.495 9 18 C11.31 18.66 13.62 19.32 16 20 C16 20.33 16 20.66 16 21 C13.36 21 10.72 21 8 21 C8 25.29 8 29.58 8 34 C5.36 34 2.72 34 0 34 C0 22.78 0 11.56 0 0 Z " fill="#080808" transform="translate(395,546)"/>
<path d="M0 0 C12.02233123 -0.18275135 24.01166731 0.31328479 36.02172852 0.79956055 C39.42646232 0.93705426 42.83136748 1.06942868 46.23632812 1.20117188 C57.50386541 1.64477085 68.75539455 2.14389365 80 3 C80.495 8.445 80.495 8.445 81 14 C79.30729167 12.73046875 77.61458333 11.4609375 75.921875 10.19140625 C70.16831324 6.62466573 62.62455999 7.7762874 56.125 7.75 C54.22427734 7.7190625 54.22427734 7.7190625 52.28515625 7.6875 C51.05925781 7.68234375 49.83335937 7.6771875 48.5703125 7.671875 C47.45414551 7.6625293 46.33797852 7.65318359 45.18798828 7.64355469 C40.35244541 8.18421119 36.99217105 10.33855264 33 13 C32.505 10.525 32.505 10.525 32 8 C19.46 7.34 6.92 6.68 -6 6 C-6 5.67 -6 5.34 -6 5 C-5.09507812 4.92652344 -5.09507812 4.92652344 -4.171875 4.8515625 C-3.37265625 4.77679688 -2.5734375 4.70203125 -1.75 4.625 C-0.96109375 4.55539062 -0.1721875 4.48578125 0.640625 4.4140625 C3.085877 3.98492887 4.84836903 3.21399362 7 2 C4.69 1.67 2.38 1.34 0 1 C0 0.67 0 0.34 0 0 Z " fill="#F4F4F4" transform="translate(316,436)"/>
<path d="M0 0 C2.97 0 5.94 0 9 0 C9 9.24 9 18.48 9 28 C17.58 28 26.16 28 35 28 C35 29.98 35 31.96 35 34 C23.45 34 11.9 34 0 34 C0 22.78 0 11.56 0 0 Z " fill="#141314" transform="translate(598,546)"/>
<path d="M0 0 C2.64 0 5.28 0 8 0 C8 9.24 8 18.48 8 28 C16.91 28 25.82 28 35 28 C35 29.98 35 31.96 35 34 C23.45 34 11.9 34 0 34 C0 22.78 0 11.56 0 0 Z " fill="#0A0A0A" transform="translate(181,546)"/>
<path d="M0 0 C0.89589844 0.00322266 1.79179687 0.00644531 2.71484375 0.00976562 C4.12056641 0.02233398 4.12056641 0.02233398 5.5546875 0.03515625 C6.49957031 0.03966797 7.44445312 0.04417969 8.41796875 0.04882812 C10.75527137 0.06063268 13.09244811 0.07709866 15.4296875 0.09765625 C13.4296875 2.09765625 13.4296875 2.09765625 11.45849609 2.32470703 C10.67297363 2.3142334 9.88745117 2.30375977 9.078125 2.29296875 C8.31161621 2.28797363 7.54510742 2.28297852 6.75537109 2.27783203 C5.78164551 2.25962402 4.80791992 2.24141602 3.8046875 2.22265625 C0.7109375 2.18140625 -2.3828125 2.14015625 -5.5703125 2.09765625 C-5.5703125 9.35765625 -5.5703125 16.61765625 -5.5703125 24.09765625 C2.0196875 24.09765625 9.6096875 24.09765625 17.4296875 24.09765625 C17.4296875 21.78765625 17.4296875 19.47765625 17.4296875 17.09765625 C20.0696875 17.09765625 22.7096875 17.09765625 25.4296875 17.09765625 C25.53852869 18.51259176 25.61566367 19.92998568 25.6796875 21.34765625 C25.72609375 22.1365625 25.7725 22.92546875 25.8203125 23.73828125 C25.26967314 27.064143 24.07994663 28.0453605 21.4296875 30.09765625 C18.12988281 30.55175781 18.12988281 30.55175781 14.2578125 30.48828125 C13.2341861 30.47979156 13.2341861 30.47979156 12.18988037 30.47113037 C10.01908988 30.44881261 7.84997544 30.39863133 5.6796875 30.34765625 C4.204451 30.32758501 2.72918851 30.30933532 1.25390625 30.29296875 C-2.35470751 30.24896505 -5.96234631 30.17997208 -9.5703125 30.09765625 C-9.9003125 29.10765625 -10.2303125 28.11765625 -10.5703125 27.09765625 C-9.2503125 26.76765625 -7.9303125 26.43765625 -6.5703125 26.09765625 C-6.5703125 17.84765625 -6.5703125 9.59765625 -6.5703125 1.09765625 C-4.16971433 -0.10264283 -2.67670601 -0.01694118 0 0 Z " fill="#070707" transform="translate(299.5703125,549.90234375)"/>
<path d="M0 0 C2.64 0 5.28 0 8 0 C8 11.22 8 22.44 8 34 C5.36 34 2.72 34 0 34 C0 22.78 0 11.56 0 0 Z " fill="#101010" transform="translate(454,546)"/>
<path d="M0 0 C4.42504534 -0.0251577 8.85005022 -0.04307066 13.27514648 -0.05493164 C14.77320076 -0.05988838 16.27125039 -0.06665574 17.76928711 -0.07543945 C27.89676176 -0.13323303 37.90263673 0.18049582 48 1 C48.495 6.445 48.495 6.445 49 12 C47.30729167 10.73046875 45.61458333 9.4609375 43.921875 8.19140625 C40.01614784 5.77017295 35.99738364 5.82718948 31.484375 5.68359375 C30.23398437 5.64169922 28.98359375 5.59980469 27.6953125 5.55664062 C26.39335937 5.51732422 25.09140625 5.47800781 23.75 5.4375 C22.43257813 5.39431641 21.11515625 5.35113281 19.7578125 5.30664062 C16.50531212 5.20058083 13.25273608 5.09851976 10 5 C10 4.01 10 3.02 10 2 C6.7 1.67 3.4 1.34 0 1 C0 0.67 0 0.34 0 0 Z " fill="#F8F8F8" transform="translate(348,438)"/>
<path d="M0 0 C6.93 0 13.86 0 21 0 C21 2.97 21 5.94 21 9 C14.07 9 7.14 9 0 9 C0 6.03 0 3.06 0 0 Z " fill="#F8F8F8" transform="translate(403,552)"/>
<path d="M0 0 C0.99 0.495 0.99 0.495 2 1 C1.67 1.99 1.34 2.98 1 4 C-22.1 4 -45.2 4 -69 4 C-69.33 3.34 -69.66 2.68 -70 2 C-46.9 2 -23.8 2 0 2 C0 1.34 0 0.68 0 0 Z " fill="#060606" transform="translate(199,526)"/>
<path d="M0 0 C18.81 0 37.62 0 57 0 C56 5 56 5 55 7 C54.34 6.67 53.68 6.34 53 6 C53.66 4.68 54.32 3.36 55 2 C27.775 2.495 27.775 2.495 0 3 C0 2.01 0 1.02 0 0 Z " fill="#08127F" transform="translate(811,440)"/>
<path d="M0 0 C1.39195915 4.17587745 -0.17676781 6.13474776 -2 10 C-14.78338977 11.25513247 -27.54511881 11.11376536 -40.375 11.0625 C-42.57551981 11.05747376 -44.77604074 11.05291285 -46.9765625 11.04882812 C-52.31773303 11.03791436 -57.65886117 11.0212658 -63 11 C-62.67 10.01 -62.34 9.02 -62 8 C-32.795 8.495 -32.795 8.495 -3 9 C-2.67 7.35 -2.34 5.7 -2 4 C-0.9375 1.6875 -0.9375 1.6875 0 0 Z " fill="#182487" transform="translate(808,570)"/>
<path d="M0 0 C2.64 0 5.28 0 8 0 C8 11.22 8 22.44 8 34 C5.36 34 2.72 34 0 34 C0 22.78 0 11.56 0 0 Z M1 1 C1 11.23 1 21.46 1 32 C2.65 32 4.3 32 6 32 C6 21.77 6 11.54 6 1 C4.35 1 2.7 1 1 1 Z " fill="#202020" transform="translate(454,546)"/>
<path d="M0 0 C0.33 0 0.66 0 1 0 C1.33 9.24 1.66 18.48 2 28 C12.23 28.33 22.46 28.66 33 29 C33.66 27.68 34.32 26.36 35 25 C35 26.98 35 28.96 35 31 C23.45 31 11.9 31 0 31 C0 20.77 0 10.54 0 0 Z " fill="#030303" transform="translate(598,549)"/>
<path d="M0 0 C2.97 0.495 2.97 0.495 6 1 C6.33 9.91 6.66 18.82 7 28 C8.32 28 9.64 28 11 28 C11 19.42 11 10.84 11 2 C11.33 2 11.66 2 12 2 C12.33 11.24 12.66 20.48 13 30 C10.03 30 7.06 30 4 30 C4 20.76 4 11.52 4 2 C2.35 2 0.7 2 -1 2 C-0.67 1.34 -0.34 0.68 0 0 Z " fill="#1F1F1F" transform="translate(351,550)"/>
<path d="M0 0 C12.54 0 25.08 0 38 0 C38 1.98 38 3.96 38 6 C33.38 6 28.76 6 24 6 C24 14.58 24 23.16 24 32 C23.67 32 23.34 32 23 32 C22.97113662 27.52084672 22.95324813 23.04171709 22.9375 18.5625 C22.92912109 17.28310547 22.92074219 16.00371094 22.91210938 14.68554688 C22.90888672 13.47060547 22.90566406 12.25566406 22.90234375 11.00390625 C22.89448853 9.31503296 22.89448853 9.31503296 22.88647461 7.59204102 C23 5 23 5 24 4 C26.01964199 3.92755947 28.04167124 3.91622812 30.0625 3.9375 C31.16722656 3.94652344 32.27195312 3.95554687 33.41015625 3.96484375 C34.26480469 3.97644531 35.11945313 3.98804688 36 4 C36 3.01 36 2.02 36 1 C24.45 1 12.9 1 1 1 C0.67 2.32 0.34 3.64 0 5 C0 3.35 0 1.7 0 0 Z " fill="#070707" transform="translate(340,546)"/>
<path d="M0 0 C0.66 0 1.32 0 2 0 C3.98 3.96 5.96 7.92 8 12 C3.38 12 -1.24 12 -6 12 C-4.24858504 7.6214626 -2.37016034 4.02927258 0 0 Z " fill="#F6F6F6" transform="translate(559,554)"/>
<path d="M0 0 C5.28 0 10.56 0 16 0 C16 2.31 16 4.62 16 7 C10.72 7 5.44 7 0 7 C0 9.64 0 12.28 0 15 C-0.33 15 -0.66 15 -1 15 C-1 12.03 -1 9.06 -1 6 C4.28 6 9.56 6 15 6 C13.86298403 4.63467451 13.86298403 4.63467451 10.83984375 4.90234375 C9.55207031 4.91394531 8.26429688 4.92554688 6.9375 4.9375 C5.64714844 4.94652344 4.35679687 4.95554687 3.02734375 4.96484375 C2.02832031 4.97644531 1.02929688 4.98804688 0 5 C-0.33 4.01 -0.66 3.02 -1 2 C-0.67 1.34 -0.34 0.68 0 0 Z " fill="#3A3A3A" transform="translate(135,559)"/>
<path d="M0 0 C12.54 0 25.08 0 38 0 C38 0.99 38 1.98 38 3 C25.13 3 12.26 3 -1 3 C-0.67 2.01 -0.34 1.02 0 0 Z " fill="#030303" transform="translate(726,441)"/>
<path d="M0 0 C4.62 0 9.24 0 14 0 C13.67 1.32 13.34 2.64 13 4 C15.31 4.33 17.62 4.66 20 5 C20 5.33 20 5.66 20 6 C11.42 6 2.84 6 -6 6 C-6 5.67 -6 5.34 -6 5 C-5.09507812 4.92652344 -5.09507812 4.92652344 -4.171875 4.8515625 C-3.37265625 4.77679688 -2.5734375 4.70203125 -1.75 4.625 C-0.96109375 4.55539062 -0.1721875 4.48578125 0.640625 4.4140625 C3.085877 3.98492887 4.84836903 3.21399362 7 2 C4.69 1.67 2.38 1.34 0 1 C0 0.67 0 0.34 0 0 Z " fill="#D3D4D4" transform="translate(316,436)"/>
<path d="M0 0 C0.33 0 0.66 0 1 0 C1 2.31 1 4.62 1 7 C6.61 7 12.22 7 18 7 C18 8.98 18 10.96 18 13 C12.39 13 6.78 13 1 13 C1 12.67 1 12.34 1 12 C5.95 12 10.9 12 16 12 C16 11.01 16 10.02 16 9 C14.39318359 9.01740234 14.39318359 9.01740234 12.75390625 9.03515625 C11.35677257 9.04453299 9.95963701 9.05363331 8.5625 9.0625 C7.85544922 9.07087891 7.14839844 9.07925781 6.41992188 9.08789062 C4.61306441 9.09653588 2.80612397 9.05220011 1 9 C0 8 0 8 -0.09765625 6.15234375 C-0.06510417 4.1015625 -0.03255208 2.05078125 0 0 Z " fill="#060606" transform="translate(238,552)"/>
<path d="M0 0 C0.39143394 1.74639757 0.76254287 3.49735918 1.125 5.25 C1.33382812 6.22453125 1.54265625 7.1990625 1.7578125 8.203125 C2.0202996 11.23442766 1.61988849 12.48017346 0 15 C-0.66 13.68 -1.32 12.36 -2 11 C-2.66 11 -3.32 11 -4 11 C-4.75 7.75 -4.75 7.75 -5 4 C-1.92307692 0 -1.92307692 0 0 0 Z " fill="#F1F1F1" transform="translate(202,510)"/>
<path d="M0 0 C14.52 0 29.04 0 44 0 C43.67 0.99 43.34 1.98 43 3 C41.05480469 2.75443359 41.05480469 2.75443359 39.0703125 2.50390625 C31.35497059 1.73237206 23.61862084 1.89338866 15.875 1.9375 C14.33073062 1.9425265 12.78645966 1.94708736 11.2421875 1.95117188 C7.49475813 1.96208303 3.74738951 1.97928386 0 2 C0 1.34 0 0.68 0 0 Z " fill="#CE0305" transform="translate(884,440)"/>
<path d="M0 0 C0.144375 0.61875 0.28875 1.2375 0.4375 1.875 C0.93152225 4.03258322 0.93152225 4.03258322 2 6 C1.73046875 8.12890625 1.73046875 8.12890625 1.1875 10.5625 C1.01605469 11.36816406 0.84460938 12.17382812 0.66796875 13.00390625 C0 15 0 15 -2 16 C-2.38873828 14.04434742 -2.76060833 12.08533496 -3.125 10.125 C-3.33382813 9.03445313 -3.54265625 7.94390625 -3.7578125 6.8203125 C-3.83773438 5.88960938 -3.91765625 4.95890625 -4 4 C-2.66666667 2.66666667 -1.33333333 1.33333333 0 0 Z " fill="#F6F6F6" transform="translate(494,471)"/>
<path d="M0 0 C1.32 0 2.64 0 4 0 C4.33 3.63 4.66 7.26 5 11 C2.69 9.35 0.38 7.7 -2 6 C-1 2 -1 2 0 0 Z " fill="#ECECEC" transform="translate(392,439)"/>
<path d="M0 0 C3.875 1.75 3.875 1.75 5 4 C5.13559318 7.00474497 5.04299016 9.99068847 5 13 C2.03 13 -0.94 13 -4 13 C-3.34 12.34 -2.68 11.68 -2 11 C-1.3574765 8.93125966 -1.3574765 8.93125966 -1 7 C-1 7.99 -1 8.98 -1 10 C-0.01 10 0.98 10 2 10 C2 7.69 2 5.38 2 3 C1.34 2.67 0.68 2.34 0 2 C0 1.34 0 0.68 0 0 Z " fill="#131313" transform="translate(516,546)"/>
<path d="M0 0 C4 1 4 1 5 2 C5.04063832 3.66617115 5.042721 5.33388095 5 7 C1.535 8.485 1.535 8.485 -2 10 C-1.34 6.7 -0.68 3.4 0 0 Z " fill="#F0F0F0" transform="translate(197,452)"/>
<path d="M0 0 C0.66 0.33 1.32 0.66 2 1 C1.72285156 1.61488281 1.44570313 2.22976563 1.16015625 2.86328125 C0.79792969 3.67152344 0.43570313 4.47976563 0.0625 5.3125 C-0.29714844 6.11300781 -0.65679688 6.91351562 -1.02734375 7.73828125 C-2.07846041 10.09489608 -2.07846041 10.09489608 -3 13 C-4.16555083 15.24445399 -5.34893967 17.46944815 -6.5625 19.6875 C-6.89185547 20.29400391 -7.22121094 20.90050781 -7.56054688 21.52539062 C-8.37154562 23.01809845 -9.18548682 24.50920695 -10 26 C-10.66 25.67 -11.32 25.34 -12 25 C-8.04 16.75 -4.08 8.5 0 0 Z " fill="#0A127B" transform="translate(770,526)"/>
<path d="M0 0 C0.66 0 1.32 0 2 0 C2.33 2.97 2.66 5.94 3 9 C-0.3 9 -3.6 9 -7 9 C-7 6.69 -7 4.38 -7 2 C-7.99 1.67 -8.98 1.34 -10 1 C-8.35 1 -6.7 1 -5 1 C-5 2.98 -5 4.96 -5 7 C-3.02 7 -1.04 7 1 7 C0.67 4.69 0.34 2.38 0 0 Z " fill="#262525" transform="translate(323,550)"/>
<path d="M0 0 C6.73742646 -0.11044961 13.29980211 0.29867087 20 1 C20 1.33 20 1.66 20 2 C11.585 2.495 11.585 2.495 3 3 C2.67 3.99 2.34 4.98 2 6 C1.34 5.67 0.68 5.34 0 5 C0 3.35 0 1.7 0 0 Z " fill="#232222" transform="translate(647,544)"/>
<path d="M0 0 C0.66 0.33 1.32 0.66 2 1 C2 2.98 2 4.96 2 7 C1.34 7 0.68 7 0 7 C0.185625 7.5775 0.37125 8.155 0.5625 8.75 C1.04023546 11.20692525 0.75729364 12.64397534 0 15 C-0.66 15 -1.32 15 -2 15 C-2.33 16.32 -2.66 17.64 -3 19 C-4.7093832 15.58123361 -2.95633777 11.93878035 -2.0625 8.375 C-1.86720703 7.57320313 -1.67191406 6.77140625 -1.47070312 5.9453125 C-0.98668398 3.96201453 -0.49413978 1.98080066 0 0 Z " fill="#181818" transform="translate(500,456)"/>
<path d="M0 0 C0.66 0 1.32 0 2 0 C3.625 2 3.625 2 5 4 C6.65 3.34 8.3 2.68 10 2 C10.66 3.32 11.32 4.64 12 6 C9.03 6 6.06 6 3 6 C2.01 4.02 1.02 2.04 0 0 Z " fill="#040404" transform="translate(572,574)"/>
<path d="M0 0 C2.11044382 3.16566573 2.75552077 5.51197415 3.625 9.1875 C3.88539063 10.27417969 4.14578125 11.36085938 4.4140625 12.48046875 C4.60742188 13.31191406 4.80078125 14.14335938 5 15 C4.34 15 3.68 15 3 15 C2.67 13.02 2.34 11.04 2 9 C1.34 9 0.68 9 0 9 C-0.87890625 2.84765625 -0.87890625 2.84765625 -1 1 C-0.67 0.67 -0.34 0.34 0 0 Z " fill="#141414" transform="translate(195,511)"/>
<path d="M0 0 C1.72217143 2.63390925 2.00455315 3.92411417 1.8125 7.125 C1 10 1 10 -2 12 C-1.85831863 10.56208484 -1.71148957 9.1246763 -1.5625 7.6875 C-1.48128906 6.88699219 -1.40007812 6.08648437 -1.31640625 5.26171875 C-1 3 -1 3 0 0 Z " fill="#E7E7E7" transform="translate(464,485)"/>
<path d="M0 0 C3.31038651 1.65519326 3.78867011 4.65442221 5 8 C4.67 8.99 4.34 9.98 4 11 C3.01 10.67 2.02 10.34 1 10 C0.67 6.7 0.34 3.4 0 0 Z " fill="#E4E3E4" transform="translate(637,484)"/>
<path d="M0 0 C0.99 0.33 1.98 0.66 3 1 C4.33599181 4.00598158 5.14345053 6.09147996 4.625 9.375 C4.41875 9.91125 4.2125 10.4475 4 11 C3.34 10.67 2.68 10.34 2 10 C1.3671875 7.71484375 1.3671875 7.71484375 0.875 4.9375 C0.70742188 4.01839844 0.53984375 3.09929688 0.3671875 2.15234375 C0.24601562 1.44207031 0.12484375 0.73179687 0 0 Z " fill="#141414" transform="translate(473,518)"/>
<path d="M0 0 C0.66 0 1.32 0 2 0 C2.66 3.63 3.32 7.26 4 11 C3.01 10.67 2.02 10.34 1 10 C0 3.375 0 3.375 0 0 Z " fill="#151515" transform="translate(481,444)"/>
<path d="M0 0 C1.65 0 3.3 0 5 0 C5.33 1.32 5.66 2.64 6 4 C4.35 4.33 2.7 4.66 1 5 C0.67 3.35 0.34 1.7 0 0 Z " fill="#FAF9FA" transform="translate(658,483)"/>
<path d="M0 0 C0.99 0 1.98 0 3 0 C1.33333333 3.33333333 -0.33333333 6.66666667 -2 10 C-3 8 -3 8 -2.44140625 6.0546875 C-2.15136719 5.33539062 -1.86132812 4.61609375 -1.5625 3.875 C-1.27503906 3.15054688 -0.98757813 2.42609375 -0.69140625 1.6796875 C-0.46324219 1.12539063 -0.23507812 0.57109375 0 0 Z " fill="#EDEDED" transform="translate(730,528)"/>
<path d="M0 0 C0 1.65 0 3.3 0 5 C-1.98 5.33 -3.96 5.66 -6 6 C-4.90218919 2.70656758 -3.7827394 0 0 0 Z " fill="#F1F1F1" transform="translate(467,493)"/>
<path d="M0 0 C0.99 0.33 1.98 0.66 3 1 C3 2.32 3 3.64 3 5 C2.01 5.33 1.02 5.66 0 6 C-0.38218767 4.34385343 -0.71395102 2.67542976 -1 1 C-0.67 0.67 -0.34 0.34 0 0 Z " fill="#FAF9F9" transform="translate(658,473)"/>
<path d="M0 0 C1.09658936 3.28976808 0.79953138 4.71303767 0 8 C-0.99 8 -1.98 8 -3 8 C-1.125 1.125 -1.125 1.125 0 0 Z " fill="#161717" transform="translate(115,449)"/>
<path d="M0 0 C0.66 0.33 1.32 0.66 2 1 C2 3.97 2 6.94 2 10 C0.4375 8.375 0.4375 8.375 -1 6 C-0.6875 2.75 -0.6875 2.75 0 0 Z " fill="#131414" transform="translate(377,487)"/>
<path d="M0 0 C1.32 0 2.64 0 4 0 C3.34 2.31 2.68 4.62 2 7 C1.67 7 1.34 7 1 7 C0.67 4.69 0.34 2.38 0 0 Z " fill="#EFF0F0" transform="translate(491,480)"/>
</svg>
